Motion_mu02
version=1
nRows=12
nColumns=43
inDegrees=yes
endheader
time	pelvis_tilt	pelvis_list	pelvis_rotation	pelvis_tx	pelvis_ty	pelvis_tz	hip_flexion_r	hip_adduction_r	hip_rotation_r	knee_angle_r	ankle_angle_r	subtalar_angle_r	mtp_angle_r	hip_flexion_l	hip_adduction_l	hip_rotation_l	knee_angle_l	ankle_angle_l	subtalar_angle_l	mtp_angle_l	lumbar_extension	lumbar_bending	lumbar_rotation	neck_flexion	neck_lateral_bending	neck_rotation	arm_flex_r	arm_add_r	arm_rot_r	elbow_flex_r	pro_sup_r	wrist_flex_r	wrist_dev_r	hand_finger_flex_r	arm_flex_l	arm_add_l	arm_rot_l	elbow_flex_l	pro_sup_l	wrist_flex_l	wrist_dev_l	hand_finger_flex_l
      3.89750000	     -3.50484957	     18.56847490	    -91.12127434	     -0.02502862	      2.01849063	      1.01660437	     24.44246898	     -0.79345682	    -12.13387916	    -17.28008368	    -20.58063516	     -0.53801553	      3.29929468	     29.06072851	     -1.67007255	     -3.87427165	    -16.76627875	    -21.36133269	     10.90465031	     11.23896765	    -27.29912241	      7.21565476	     -0.84450385	    -10.05039292	    -14.19358020	      2.10027615	   -191.07986923	   -157.47536516	   -176.06156806	     72.75276702	    162.54026048	    -56.66631981	    -23.31440586	     75.05122220	    -12.77362760	    -12.60528195	     -3.04213693	     59.05237553	    165.10043233	    -71.10037118	    -21.04538255	     61.84621727
      3.90000000	     -3.54141759	     18.31667761	    -90.97535769	     -0.02509823	      2.01778295	      1.01647096	     24.19243495	     -0.80171864	    -12.08059589	    -17.36384077	    -20.68426773	     -0.88885629	      3.12953512	     28.83981250	     -1.70628706	     -3.83066022	    -16.80753765	    -21.31309557	     10.90279740	     11.26245653	    -27.60903252	      7.24944466	     -1.01911543	     -9.83206893	    -14.12145402	      2.21739308	   -191.26071750	   -157.39588091	   -176.15468695	     73.32008037	    162.55303657	    -55.87600038	    -23.44696500	     74.82453783	    -13.19755397	    -12.48770851	     -3.76875024	     59.82478266	    165.80972906	    -70.39714424	    -21.15521049	     62.12274085
      3.90250000	     -3.53727428	     18.26006646	    -90.93554322	     -0.02511492	      2.01669994	      1.01628634	     24.15824477	     -0.85037301	    -12.10083158	    -17.44550572	    -20.74801874	     -0.90519153	      3.11073959	     28.81121048	     -1.74141255	     -3.87913542	    -16.82416785	    -21.34165011	     10.89238823	     11.26050500	    -27.61584893	      7.25235011	     -1.06852961	    -10.02747060	    -14.17913039	      2.24108200	   -191.50476113	   -157.27851183	   -176.17785205	     73.71405882	    162.53582868	    -55.92391620	    -23.45399329	     74.79116054	    -13.43040522	    -12.51358634	     -3.87192626	     60.15378857	    165.80744571	    -70.51355906	    -21.14279051	     62.10938359
      3.90500000	     -3.53816167	     18.19123786	    -90.85766461	     -0.02521486	      2.01559311	      1.01613344	     24.12317606	     -0.89966534	    -12.10237807	    -17.57219895	    -20.81233501	     -0.94303982	      3.09419946	     28.77200379	     -1.77960109	     -3.92563720	    -16.85257885	    -21.35900181	     10.87827175	     11.26192499	    -27.63965459	      7.26658000	     -1.15364659	    -10.15557106	    -14.22114444	      2.25567492	   -191.76054981	   -157.21284548	   -176.24477796	     74.13432523	    162.51024613	    -55.95091184	    -23.45002473	     74.76166281	    -13.69351142	    -12.54415003	     -3.99769579	     60.52484105	    165.80760747	    -70.62531053	    -21.13770395	     62.10311057
      3.90750000	     -3.52379985	     18.05809931	    -90.75189534	     -0.02543764	      2.01451605	      1.01583779	     24.06710672	     -0.96326950	    -12.19550067	    -17.75688200	    -20.81693423	     -1.16700909	      3.06652400	     28.70393320	     -1.80258033	     -3.89134383	    -16.94534493	    -21.35256749	     10.88416962	     11.28936115	    -27.81578330	      7.23172592	     -1.24625510	     -9.91965263	    -14.12183560	      2.22893942	   -192.08023221	   -157.23418506	   -176.48185160	     74.63177914	    162.47423715	    -55.73937239	    -23.39472239	     74.69764992	    -14.09361912	    -12.55353137	     -4.35660964	     61.23589790	    165.91843004	    -70.63089683	    -21.14405736	     62.15081865
      3.91000000	     -3.54075030	     17.85739280	    -90.60598136	     -0.02532802	      2.01358904	      1.01565295	     23.87526512	     -1.00638588	    -12.20844315	    -17.86794365	    -20.83886810	     -1.44528934	      3.00743899	     28.55526048	     -1.79979534	     -3.82204995	    -16.98178994	    -21.35196984	     10.88369727	     11.35000445	    -28.05192333	      7.27170590	     -1.36670290	     -9.74793702	    -14.07930966	      2.31200449	   -192.34590927	   -157.11334808	   -176.59260475	     75.22417751	    162.53512809	    -55.14019930	    -23.39499722	     74.56599918	    -14.46145261	    -12.46633147	     -4.80950283	     61.93076644	    166.29678329	    -70.27324583	    -21.21812327	     62.30613755
      3.91250000	     -3.55779272	     17.78749877	    -90.50337352	     -0.02530937	      2.01247206	      1.01551181	     23.83328791	     -1.04804530	    -12.15998649	    -17.97369090	    -20.91505839	     -1.44301536	      2.98825657	     28.50457245	     -1.83748910	     -3.88713645	    -16.98299328	    -21.37933369	     10.86262779	     11.35316538	    -28.06862043	      7.32441807	     -1.45779026	     -9.97512704	    -14.19710836	      2.36385418	   -192.59232871	   -157.03263985	   -176.66905933	     75.60042240	    162.52309610	    -55.13915356	    -23.40049390	     74.53050109	    -14.70952212	    -12.49467474	     -4.92290017	     62.27448180	    166.31668192	    -70.36186408	    -21.22324853	     62.30445706
      3.91500000	     -3.55260203	     17.64181074	    -90.39869570	     -0.02537498	      2.01139439	      1.01524458	     23.73511810	     -1.10086711	    -12.21907311	    -18.13307757	    -20.87720279	     -1.61790058	      2.93676868	     28.42080566	     -1.85480597	     -3.87794960	    -17.05121234	    -21.39987811	     10.87942090	     11.39698839	    -28.26123030	      7.31719208	     -1.54634060	     -9.75816757	    -14.10819640	      2.36524358	   -192.89368736	   -156.99126851	   -176.88066508	     76.17679593	    162.55822759	    -54.75783453	    -23.45292809	     74.41330353	    -15.06679313	    -12.44833423	     -5.29187139	     62.92739758	    166.54290215	    -70.24327470	    -21.27824783	     62.36530431
      3.91750000	     -3.56460347	     17.57572331	    -90.30096716	     -0.02539561	      2.01024738	      1.01504432	     23.69654163	     -1.13699860	    -12.17488290	    -18.22956669	    -20.93686030	     -1.62074946	      2.91730200	     28.38201994	     -1.89039559	     -3.93523270	    -17.05314261	    -21.42737185	     10.86027554	     11.39769348	    -28.28643973	      7.35730765	     -1.62757133	     -9.97901214	    -14.22130894	      2.41650928	   -193.13691599	   -156.92387786	   -176.97282173	     76.55747023	    162.54594242	    -54.76408896	    -23.46946896	     74.38132562	    -15.30843193	    -12.48086872	     -5.40724797	     63.29142708	    166.55346541	    -70.34593872	    -21.29050133	     62.35775823
      3.92000000	     -3.56447956	     17.48530652	    -90.20579579	     -0.02555379	      2.00901960	      1.01486464	     23.65165486	     -1.18157540	    -12.20075783	    -18.38150981	    -20.93977932	     -1.69177868	      2.88997054	     28.34433794	     -1.92866741	     -3.97429326	    -17.11094309	    -21.46561291	     10.85421673	     11.40205137	    -28.36613530	      7.35605710	     -1.67269924	     -9.98532346	    -14.22231389	      2.42690541	   -193.44773018	   -156.92477249	   -177.17482445	     76.95940223	    162.54578011	    -54.69561262	    -23.49617927	     74.33493972	    -15.64214984	    -12.47326438	     -5.61698598	     63.83672565	    166.59215014	    -70.45285593	    -21.32299981	     62.35203751
      3.92250000	     -3.56850430	     17.41925922	    -90.11728306	     -0.02548632	      2.00785665	      1.01453088	     23.62982951	     -1.22801543	    -12.17691864	    -18.48861746	    -20.95899943	     -1.72321782	      2.87124768	     28.32532043	     -1.95212849	     -4.02199030	    -17.13559801	    -21.49003859	     10.84812525	     11.40147407	    -28.43491289	      7.38224726	     -1.74196412	    -10.07251462	    -14.25035520	      2.44405941	   -193.68187211	   -156.81711060	   -177.25122820	     77.39859615	    162.55515072	    -54.69991842	    -23.53603929	     74.30087996	    -15.86339367	    -12.49924712	     -5.74579588	     64.22536559	    166.61649247	    -70.54198764	    -21.35567291	     62.34474924
      3.92500000	     -3.56597885	     17.32626908	    -90.01305541	     -0.02568445	      2.00658829	      1.01430934	     23.59389983	     -1.27486833	    -12.19280811	    -18.65756604	    -20.95175810	     -1.78835789	      2.84362677	     28.29782294	     -1.98896617	     -4.05585019	    -17.20299268	    -21.52382447	     10.84725561	     11.39962164	    -28.53375035	      7.37112688	     -1.77432820	    -10.02537197	    -14.22407312	      2.44387606	   -193.99881134	   -156.82506558	   -177.43406429	     77.78776951	    162.58747547	    -54.67290007	    -23.56581180	     74.25260039	    -16.18963677	    -12.49645798	     -5.95357128	     64.80070205	    166.66791024	    -70.65243245	    -21.41728583	     62.33784476
